<svg xmlns="http://www.w3.org/2000/svg" width="250" height="200" viewBox="0 0 250 200">
  <title>kozarusha</title>
  <g id="デザインエリア">
    <g>
      <g>
        <path d="M87.572,149.938a2.707,2.707,0,0,1,.115.652.374.374,0,0,1-.115.272l-.54.192a2.713,2.713,0,0,0-1.02.25,2.664,2.664,0,0,1-.981.25l-.885-.039a2.333,2.333,0,0,1-.924.272,2.892,2.892,0,0,1-.867-.194,2.855,2.855,0,0,0-.788-.192.682.682,0,0,0-.443.25.688.688,0,0,1-.443.25l-.27-.308-.423-.114a5.089,5.089,0,0,0-.751.075,4.744,4.744,0,0,1-.712.078,1.573,1.573,0,0,1-.694-.192,1.477,1.477,0,0,0-.577-.194,1.32,1.32,0,0,0-.538.175,1.357,1.357,0,0,1-.54.172,1.479,1.479,0,0,1-.558-.172,1.577,1.577,0,0,0-.673-.175.715.715,0,0,1-.5-.172q-.193-.175-.269-.175-.116,0-.251.175c-.09.116-.16.172-.211.172-.078,0-.25-.129-.52-.383a1.119,1.119,0,0,0-.634-.386c-.1,0-.193.078-.27.23l-.076-.538q-1-.116-.963-.577a5.15,5.15,0,0,0,.462-1.154q.231-.771.731-.771l.154.039a.2.2,0,0,0,.232.23,3.881,3.881,0,0,0,1.039-.422l.193.5q1.422.462,2.347.732a.337.337,0,0,0,.23.114,2.017,2.017,0,0,0,.732-.23,2.049,2.049,0,0,1,.769-.23,2.682,2.682,0,0,1,.809.192,2.717,2.717,0,0,0,.846.194,2.307,2.307,0,0,0,.674-.155,2.27,2.27,0,0,1,.635-.153.7.7,0,0,1,.327.133.714.714,0,0,0,.365.136,1.215,1.215,0,0,0,.366-.1,1.22,1.22,0,0,1,.4-.1,13.881,13.881,0,0,0,2.021-.192,13.852,13.852,0,0,1,2.02-.192c.179,0,.366.133.558.4s.289.4.289.4v.269A2.75,2.75,0,0,0,87.572,149.938Zm1.539-18.246q0,.04-.461,1.079a1.461,1.461,0,0,0-.5.422c0,.027-.039.233-.115.616l-1,.924a3.112,3.112,0,0,0-1.039,1.809.3.3,0,0,1-.269.116,1,1,0,0,0-.846.347.752.752,0,0,1-.578.347l-.346-.078q-.886-.888-1.5-1.423a8.769,8.769,0,0,1,.654-1.387,1.2,1.2,0,0,0,.867-.422,1.247,1.247,0,0,0,.4-.849c0-.281-.167-.434-.5-.461H83.03a3.561,3.561,0,0,0-1,.211,3.574,3.574,0,0,1-.963.211,1.108,1.108,0,0,1-.5-.23,1.129,1.129,0,0,0-.577-.23,10.353,10.353,0,0,0-1.54.192,10.09,10.09,0,0,1-1.577.194,3.644,3.644,0,0,1-.731-.116,3.657,3.657,0,0,0-.731-.116,1.132,1.132,0,0,0-.52.194,1.127,1.127,0,0,1-.519.192.752.752,0,0,1-.386-.153.754.754,0,0,0-.347-.155.577.577,0,0,0-.308.155.566.566,0,0,1-.308.153h-.076a5.667,5.667,0,0,0-.731-.422c-.36-.155-.54-.3-.54-.424,0-.051.013-.179.039-.386a.565.565,0,0,0,.039-.347.85.85,0,0,1-.308-.577v-.036l.347-.272c.127-.332.32-.5.577-.5a3.8,3.8,0,0,1,.5.039.736.736,0,0,0,.346,0,1.709,1.709,0,0,0,.54-.269.327.327,0,0,0,.23.114.793.793,0,0,0,.347-.133.815.815,0,0,1,.384-.136,2.045,2.045,0,0,1,.443.1,2,2,0,0,0,.559.1,3.245,3.245,0,0,1,.692.114,3.208,3.208,0,0,0,.616.116,6.094,6.094,0,0,0,2-.577,1.158,1.158,0,0,1,.6.25,1.253,1.253,0,0,0,.712.25,2.654,2.654,0,0,0,.712-.153,2.7,2.7,0,0,1,.751-.155,2.65,2.65,0,0,1,.616.116,2.632,2.632,0,0,0,.577.114,3.87,3.87,0,0,0,.751-.114,3.951,3.951,0,0,1,.789-.116,1.957,1.957,0,0,1,.635.155,1.942,1.942,0,0,0,.634.153,1.2,1.2,0,0,0,.462-.078.874.874,0,0,1,.27-.075,1.318,1.318,0,0,1,.616.308Q89.111,130.578,89.11,131.692Z" fill="#bebdbd"/>
        <path d="M118.666,134.251l.417.15a1.466,1.466,0,0,0,.172.589,1.453,1.453,0,0,1,.17.514,6.352,6.352,0,0,1-.056.684,1.435,1.435,0,0,1-.133.55,2.135,2.135,0,0,1-.589.323,2.178,2.178,0,0,1-.7.228.846.846,0,0,1-.417-.131.827.827,0,0,0-.306-.133,1.209,1.209,0,0,0-.531.264c-.177.027-.356-.087-.533-.342l-.378-.036a1.2,1.2,0,0,0-.761.189l-.417.114q-.571,0-.684.153c-.1.252-.216.507-.342.759l.495.647-.153.684.3.3a4.648,4.648,0,0,0-.264.723.674.674,0,0,0,.245.436.7.7,0,0,1,.247.475,2.434,2.434,0,0,1-.114.512.98.98,0,0,0-.036.589.74.74,0,0,0,.342.228c.177.078.276.165.3.267-.153.3-.3.609-.456.912a1,1,0,0,1-.837.495.7.7,0,0,1-.363-.133.666.666,0,0,0-.323-.133.52.52,0,0,0-.3.189.528.528,0,0,1-.342.192c-.078,0-.153-.063-.228-.192l-.192-.759-.264-.039-.039-.114a2.451,2.451,0,0,1,.114-.684.651.651,0,0,0-.284-.323.507.507,0,0,1-.247-.436,19.977,19.977,0,0,0-.267-2.621l-.3-.306a.807.807,0,0,1,.131-.378.785.785,0,0,0,.133-.342,1.428,1.428,0,0,0-.626-.989,1.826,1.826,0,0,0-1.084-.531,7.163,7.163,0,0,0-1.273.17,7.22,7.22,0,0,1-1.2.172c-.126,0-.393-.192-.8-.57l-.495.228c-.153,0-.4.019-.742.056s-.576.058-.7.058a1,1,0,0,1-.4-.172,1.066,1.066,0,0,0-.55-.17,1.881,1.881,0,0,0-.835.3c-.381-.354-.646-.519-.8-.495-.152.153-.38.129-.684-.075a.49.49,0,0,0-.228.247c-.051.114-.177.158-.38.133a1.767,1.767,0,0,0-1.14.036c-.1-.3-.28-.456-.532-.456a.873.873,0,0,0-.609.306l-.228-.381c-.355-.153-.531-.323-.531-.514a4.138,4.138,0,0,0-.076-.7,3.875,3.875,0,0,1-.076-.647.373.373,0,0,1,.076-.267l.57-.036.3-.381.342-.189a.9.9,0,0,1,.4.133.914.914,0,0,0,.4.131.732.732,0,0,0,.323-.114.793.793,0,0,1,.361-.114.994.994,0,0,1,.475.172.982.982,0,0,0,.475.17,31.733,31.733,0,0,0,3.533-.114q.038-.036.513.211a1.782,1.782,0,0,0,.664.245,2.12,2.12,0,0,0,.761-.209,2.3,2.3,0,0,1,.645-.209.645.645,0,0,1,.381.209.646.646,0,0,0,.417.209.723.723,0,0,0,.323-.114.808.808,0,0,1,.286-.114,11.29,11.29,0,0,1,1.215.228.475.475,0,0,0,.4-.131.462.462,0,0,0,.209-.325.413.413,0,0,0-.209-.3q-.211-.153-.247-.189a1.258,1.258,0,0,0,.306-.8,2.423,2.423,0,0,0-.533-1.1.578.578,0,0,1,.189-.417l-.228-.306c-.126-.075-.189-.15-.189-.228a.733.733,0,0,1,.153-.378.752.752,0,0,0,.15-.342l-.228-.609a1.973,1.973,0,0,0,.228-.57,3.97,3.97,0,0,1,.039-.8l.381-.153a4.891,4.891,0,0,1,.723.153.879.879,0,0,0,.492-.095,1.27,1.27,0,0,1,.456-.133c.1,0,.247.233.439.7a3.471,3.471,0,0,1,.284.892,1.165,1.165,0,0,1-.153.456,1.192,1.192,0,0,0-.15.456,1.707,1.707,0,0,0,.436.912,1.71,1.71,0,0,1,.436.875l-.342.759c.051-.075.133-.019.247.17s.2.337.247.439a1.515,1.515,0,0,0,1.444,1.14,2.922,2.922,0,0,1,.837-.228.436.436,0,0,1,.267.133.431.431,0,0,0,.228.131c.075,0,.158-.056.247-.17s.158-.172.209-.172a3.791,3.791,0,0,1,.837.267,3.479,3.479,0,0,0,.873.267A4.309,4.309,0,0,0,118.666,134.251Zm-5.836,15.484a4.1,4.1,0,0,0,.228.951,3.749,3.749,0,0,1,.211.778l-.039.153a16.111,16.111,0,0,0-1.748.875l-.495-.306a.768.768,0,0,0-.417.228.783.783,0,0,1-.495.228,1.414,1.414,0,0,1-.456-.114,1.483,1.483,0,0,0-.456-.114,2.248,2.248,0,0,1-.645-.114,2.271,2.271,0,0,0-.533-.114q-.153,0-.342.247t-.342.247a2.805,2.805,0,0,1-.759-.495l-.533-.114a3.141,3.141,0,0,0-.492.039,1.04,1.04,0,0,0-.8-.533.564.564,0,0,0-.285.114.551.551,0,0,1-.246.116.252.252,0,0,1-.228-.116c-.025-.228-.114-.342-.267-.342h-.076l-.342-.036q-1.33-1.179-2.2-1.9a.472.472,0,0,0,.075-.264,2.688,2.688,0,0,0-.55-1.293,3.342,3.342,0,0,1-.552-1.026q0-1.179.076-.8a2.937,2.937,0,0,0-.57-.723.839.839,0,0,0,.3-.533,1.172,1.172,0,0,0-.133-.436,1.148,1.148,0,0,1-.133-.436.647.647,0,0,1,.153-.417.938.938,0,0,0-.153-.553,1.329,1.329,0,0,1-.189-.55c0-.3.164-.441.493-.417a6.926,6.926,0,0,1,.684-.381.52.52,0,0,1,.285.133.506.506,0,0,0,.285.133c.025,0,.153-.024.381-.075a.6.6,0,0,1,.38.036c.1.051.153.177.153.381a1.586,1.586,0,0,0,.189.817,1.11,1.11,0,0,1,.19.475q0,.873.323,1.026c.216.1.324.189.324.264a.833.833,0,0,1-.153.4.845.845,0,0,0-.152.361,4.494,4.494,0,0,0,.493,1.14q.495.949.646,1.179l.456.114.039.531.493-.075a2.643,2.643,0,0,0,1.824.987,13.721,13.721,0,0,1,1.693.153,13.608,13.608,0,0,0,1.651.153.624.624,0,0,0,.456-.267.613.613,0,0,1,.42-.267.576.576,0,0,1,.361.228c.138.153.245.228.323.228a1.314,1.314,0,0,0,.475-.114,1.309,1.309,0,0,1,.436-.114C112.724,149.412,112.818,149.521,112.83,149.734Zm2.528-20.045a1.052,1.052,0,0,1-.15-.342l.228-.342-.078-.531a14.772,14.772,0,0,1,.228-3.041,2.178,2.178,0,0,0,.837-.264l.495.15.456-.189q.873.378.873,1.026a8.062,8.062,0,0,0,.078.912,7.925,7.925,0,0,1,.075.837c0,.075-.07.138-.209.189s-.209.114-.209.192c0,.2.138.393.417.57-.051.177-.09.315-.114.417a2.668,2.668,0,0,1,.228.759.758.758,0,0,1-.189.495q-.306,1.026-.456,1.026-.076,0-.989-.189c-.609-.126-.936-.2-.987-.228A10.8,10.8,0,0,0,115.358,129.689Zm8.209-1.6c.2.078.306.153.306.228a3.514,3.514,0,0,1-.133.7,3.368,3.368,0,0,0-.133.7,2.89,2.89,0,0,0,.039.381.793.793,0,0,1,0,.342c0,.075-.235.264-.7.57a2.913,2.913,0,0,1-.856.456c-.1,0-.189-.114-.267-.342s-.291-.342-.645-.342q.036-.873-.189-1.026a8.311,8.311,0,0,1-.228-.989,1.986,1.986,0,0,1,.056-.378.98.98,0,0,0,.019-.42l-.495-.8.078-.456.531-.228a1,1,0,0,1-.075-.381.851.851,0,0,1,.873-.948l.57.189a1.315,1.315,0,0,1,.3-.039q1.066,0,1.065,1.673a.634.634,0,0,1-.209.378.651.651,0,0,0-.209.42C123.264,127.917,123.363,128.018,123.567,128.094Z" fill="#bebdbd"/>
        <path d="M145.494,146.778a4.228,4.228,0,0,1-.325,1.351,7.153,7.153,0,0,0-.323.975c0,.434-.158.7-.475.788s-.475.25-.475.478q0,1.608-1.368,1.54h-.114l.039.376a7.047,7.047,0,0,0-.873.342,20.684,20.684,0,0,1-2.738.616.811.811,0,0,1-.606.41c.15,0-.039-.046-.572-.136a1.306,1.306,0,0,0-.7.068,2.521,2.521,0,0,1-.628.136,5.157,5.157,0,0,1-.987-.153,5.232,5.232,0,0,0-.989-.155,1.928,1.928,0,0,0-.55.121,1.905,1.905,0,0,1-.55.119,3.143,3.143,0,0,1-2-.786,3.139,3.139,0,0,0-1.729-.822l-.228-.786c-.153-.092-.3-.182-.436-.274a.606.606,0,0,1-.209-.548,3.283,3.283,0,0,1,.095-.769,2.824,2.824,0,0,0,.095-.531,1.919,1.919,0,0,0-.381-.992q.382-.615.723-1.162l-.267-.41a.152.152,0,0,1,.153-.1.581.581,0,0,1,.3.138q.724-1.266.989-1.266l.15.034a.982.982,0,0,0,.381.1.771.771,0,0,0,.514-.308.788.788,0,0,1,.55-.306,1.557,1.557,0,0,1,.512.119,1.547,1.547,0,0,0,.475.119,4.53,4.53,0,0,1,.8-.308,2.879,2.879,0,0,1,.628.189,2.57,2.57,0,0,0,.856.187c.3,0,.492-.068.57-.2l.036.2a.454.454,0,0,1-.036.206c0,.092.24.2.72.325a1.323,1.323,0,0,1,.912.565c-.252.136-.378.262-.378.376,0,.068.1.1.3.1a.52.52,0,0,0,.228-.085.554.554,0,0,1,.228-.085.5.5,0,0,1,.267.1l.153.308a1.927,1.927,0,0,1-.114.512c.327.274.492.48.492.616a3.344,3.344,0,0,0,.153,1.13.83.83,0,0,0-.075.342.667.667,0,0,0,.759.752,2.965,2.965,0,0,0,1.273-.7q.931-.7.931-.975a1.16,1.16,0,0,1,.436-.941.971.971,0,0,0,.436-.7,1.421,1.421,0,0,0-.133-.495,1.485,1.485,0,0,1-.131-.5.557.557,0,0,1,.209-.376c.138-.136.209-.216.209-.24,0-.046-.216-.17-.645-.376a4.092,4.092,0,0,0-.228-.82,22.837,22.837,0,0,0-2.66-2.054c-.129-.114-.216-.17-.267-.17a.975.975,0,0,1-.456.2,6.858,6.858,0,0,0-1.1-.444,4.181,4.181,0,0,1-1.215-.136c-.027-.024-.141.012-.342.1a.946.946,0,0,1-.57-.051,2.187,2.187,0,0,0-.495-.119,4.33,4.33,0,0,1-1.671-.274,3.691,3.691,0,0,1-.761-.034,6.6,6.6,0,0,0-.8-.412,1.9,1.9,0,0,0,.192-.921v-.138a1.138,1.138,0,0,1,.72-1.2,1.1,1.1,0,0,0,.306-.616,4.51,4.51,0,0,1,.759-.771,3.606,3.606,0,0,0,.817-.921,2.471,2.471,0,0,0,.247-.6,2.07,2.07,0,0,1,.645-.274c.1-.32.172-.565.209-.735s.211-.354.514-.548a1.393,1.393,0,0,0,.57-.565l.039-.136a.877.877,0,0,1,.57-.907.878.878,0,0,0,.57-.907.27.27,0,0,0-.306-.306,1.621,1.621,0,0,0-.456.1,1.625,1.625,0,0,1-.492.1.861.861,0,0,1-.439-.153.813.813,0,0,0-.359-.155c-.179,0-.432-.01-.761-.034s-.57-.034-.723-.034a.8.8,0,0,0-.342.136.815.815,0,0,1-.417.138l-.684-.034-.342.376-.114.034a1.027,1.027,0,0,1-.495-.189c-.2-.124-.33-.2-.378-.221a2.316,2.316,0,0,0-.609,0,.863.863,0,0,1-.57-.138l-.078-.82a.667.667,0,0,1,.153-.274.646.646,0,0,0,.153-.376c0-.524-.015-.7-.039-.514.024-.158.172-.238.436-.238a2.9,2.9,0,0,0,1.123-.342c.075.022.327.09.759.2a2.8,2.8,0,0,0,.8.138,1.253,1.253,0,0,0,.456-.138.68.68,0,0,1,.495-.068,4.641,4.641,0,0,0,.609.136,2.853,2.853,0,0,0,.57-.136,1.2,1.2,0,0,1,.645.051,2.526,2.526,0,0,0,.57.119,7.251,7.251,0,0,0,1.006-.1,7.21,7.21,0,0,1,.97-.1,1.287,1.287,0,0,1,.475.119,1.245,1.245,0,0,0,.436.121,1,1,0,0,0,.4-.121.947.947,0,0,1,.359-.119,1.78,1.78,0,0,1,.97.444,1.618,1.618,0,0,1,.664.788l.381.342.153.342a2.191,2.191,0,0,1-.589,1.077q-.589.735-1.009.735c-.177.024-.264.058-.264.1a1.607,1.607,0,0,1,.075.274c.024.138-.012.206-.114.206-.33,0-.507.2-.531.6s-.114.6-.267.6a.423.423,0,0,1-.209-.087.457.457,0,0,0-.209-.085q-.116,0-.4.342a1.044,1.044,0,0,0-.284.478v.616a.354.354,0,0,1-.4.342c-.24,0-.361.046-.361.138l.039.136-.3.822a3.037,3.037,0,0,1-.647.2,2.313,2.313,0,0,1-.57,1.13l-.114.478c0,.32.153.48.456.48a5.909,5.909,0,0,1,2.413.495,5.927,5.927,0,0,0,1.576.531,1.652,1.652,0,0,0,1.084.529,2.528,2.528,0,0,1,.742.121,1.952,1.952,0,0,1,.264.58,6.139,6.139,0,0,0,1.14,1.266q.837.822.837,1.164a1.66,1.66,0,0,0,.247.786,1.6,1.6,0,0,1,.247.718Zm-9.918,2.088c-.255-.388-.507-.764-.761-1.13a2.572,2.572,0,0,1-.645.1.636.636,0,0,1-.514-.206c-.114-.138-.184-.206-.209-.206q-1.368,0-1.368.924c-.255.024-.412.1-.475.223s-.133.267-.209.427l.267.308a3.468,3.468,0,0,0,.684.89l.15.478a2.068,2.068,0,0,1,.761,0l.531.41a.414.414,0,0,0,.3-.17.413.413,0,0,1,.267-.172,1.213,1.213,0,0,0,.742-.187,1.074,1.074,0,0,1,.512-.223l.039-.034A4.981,4.981,0,0,0,135.575,148.866Z" fill="#bebdbd"/>
        <path d="M178.163,132.691l.587.456a2.629,2.629,0,0,0-.587.951,1.019,1.019,0,0,1-1.045.57,1.119,1.119,0,0,1-.711-.228c-.194-.153-.39-.3-.584-.456l-.126-.3a1.611,1.611,0,0,1-1.295-.381q-.837-.76-.96-.837a6.817,6.817,0,0,0-1.882-1.634,14,14,0,0,1-2.425-2.052c-.417,0-.655-.036-.711-.114-.141-.228-.264-.456-.376-.684l-.584-.153a2.266,2.266,0,0,0-2.3-1.329.909.909,0,0,0-.732.417c-.209.279-.4.533-.565.761l-.669.189-.458.456-1.045.192c.167.15.25.279.25.378,0,.153-.25.267-.752.342a10.63,10.63,0,0,1-2.027,1.465,7.421,7.421,0,0,1-2.153,1.12l-.291.8-.963.417.126.609a19.008,19.008,0,0,0-2.466.951,2.663,2.663,0,0,0-1.339-.837l-.126-.495q0-1.026,1.547-1.6l.293-.912a8.6,8.6,0,0,0,2.905-1.576,6.973,6.973,0,0,0,2.321-2.149.9.9,0,0,0,.938-.4c.153-.291.3-.436.439-.436a2.484,2.484,0,0,1,.378.114,1.737,1.737,0,0,0,.5.114c.141,0,.211-.078.211-.228l-.335-.495.878-.912c.669,0,1-.075,1-.228a1,1,0,0,1,.335-.647l.42.078a3.526,3.526,0,0,1,2.005-.837,2.352,2.352,0,0,1,1.254.361,1.069,1.069,0,0,1,.587.931l.919.189a6.617,6.617,0,0,1,.543.647c.223.3.432.456.626.456q.753,0,1.465,1.215c.473.812.849,1.2,1.128,1.179l.543-.039q.167.571,1.714,1.6a12.424,12.424,0,0,0,2.173,1.217l.126.873,1.295.228Zm-1.377,10.032a4.086,4.086,0,0,1-.044.8,9.237,9.237,0,0,1-1.547.609,1.889,1.889,0,0,1-.584-.133,1.947,1.947,0,0,0-.584-.133,3.532,3.532,0,0,0-1,.228,3.47,3.47,0,0,1-1.045.228,6.634,6.634,0,0,1-1.317-.189,6.557,6.557,0,0,0-1.276-.189l-.752.456q-3.136-.684-3.468-.684a2.6,2.6,0,0,0-.878.209,2.642,2.642,0,0,1-.878.209,1.72,1.72,0,0,1-.963-.342l-2.3-.039a1.4,1.4,0,0,0-.521.172,1.4,1.4,0,0,1-.524.17l-.919-.264-1,.3a26.5,26.5,0,0,0-2.968-.684l-.041-.873c-.029-.684.223-1.028.752-1.028a10.693,10.693,0,0,0,2.343-.3,2.1,2.1,0,0,0,.752.114,7.986,7.986,0,0,0,1.108-.114,7.912,7.912,0,0,1,1.065-.114,1.857,1.857,0,0,1,.606.153,1.853,1.853,0,0,0,.606.15l.837-.456.878.42c.223,0,.4-.216.543-.647a2.649,2.649,0,0,0,.209-.948,7.65,7.65,0,0,0-.293-1.94,5.126,5.126,0,0,1-2.132-.531,14.369,14.369,0,0,0-1.838.172,14.3,14.3,0,0,1-1.841.17,1.875,1.875,0,0,1-.9-.3,1.815,1.815,0,0,0-.815-.306v-.228a3.982,3.982,0,0,1,.082-1.1c.112-.582.264-.873.461-.873a2.406,2.406,0,0,1,.711.114,2.187,2.187,0,0,0,.543.114,1.444,1.444,0,0,0,.752-.267c.252,0,.7.024,1.339.075a7.979,7.979,0,0,0,1.295.039,3.7,3.7,0,0,0,1.254-.267l.837.153c.279.051.5-.533.669-1.748a11.894,11.894,0,0,0,.167-2.09v-.075a9.378,9.378,0,0,0,1.671-.039c.141.255.487.417,1.045.495a3.47,3.47,0,0,1-.291.912l.458.723-.209.378a1.754,1.754,0,0,1,0,.533,3.5,3.5,0,0,0-.082.57c0,.432.376.645,1.128.645l.5-.036.041-.42a2.783,2.783,0,0,1,.752.306,1.889,1.889,0,0,0,.837.264l.752-.342a2.425,2.425,0,0,0,1.38.342h1.714q1.128.116,1.128.837a2.611,2.611,0,0,1-.167.684,1.518,1.518,0,0,0-.082.837,3.3,3.3,0,0,0-.628-.078.582.582,0,0,0-.458.192.586.586,0,0,1-.461.189,1.372,1.372,0,0,1-.5-.153,1.42,1.42,0,0,0-.543-.15,18.913,18.913,0,0,0-5.226.684l.335.57q-.335,2.7.335,2.7l.587-.378a2.774,2.774,0,0,1,.834.189,2.726,2.726,0,0,0,.837.189l2.049-.57-.041-.036a3.819,3.819,0,0,0,1.169.606l.628-.264Q176.786,141.281,176.786,142.723Zm-3.262,9.576a2.978,2.978,0,0,1,.082.609,1.8,1.8,0,0,1-.165.628,1.693,1.693,0,0,0-.167.626q0,1.331-2.425,1.331a2.681,2.681,0,0,1-.628-.114,2.561,2.561,0,0,0-.626-.114,1.52,1.52,0,0,0-.483.114,1.564,1.564,0,0,1-.48.114,1.428,1.428,0,0,1-.521-.133,1.38,1.38,0,0,0-.524-.133,6.259,6.259,0,0,0-1.212.17,6.285,6.285,0,0,1-1.21.172c-.446,0-.725-.1-.837-.3a27.663,27.663,0,0,0-3.931.228,1.326,1.326,0,0,0-.752-.381c-.5,0-.752-.063-.752-.192,0-.378-.041-.57-.126-.57l-.5.153a3.14,3.14,0,0,0-.082-.968,4.581,4.581,0,0,1-.126-.856,1.3,1.3,0,0,1,.23-.609,1.316,1.316,0,0,0,.23-.531,2.034,2.034,0,0,0-.189-.723,1.986,1.986,0,0,1-.187-.684,8.716,8.716,0,0,1,.584-3.419,1.221,1.221,0,0,1,.919-.761,6.956,6.956,0,0,1,1.38-.075,9.059,9.059,0,0,1,1.276.133,9.444,9.444,0,0,0,1.317.133,2.7,2.7,0,0,0,.563-.1,1.8,1.8,0,0,1,.65-.056,9.509,9.509,0,0,1,1.838.189,3.084,3.084,0,0,0,.669-.114,3.23,3.23,0,0,1,.711-.114,5.676,5.676,0,0,1,1.191.228,4.081,4.081,0,0,1,1.067.381,1.011,1.011,0,0,0,.458-.172,1.048,1.048,0,0,1,.5-.17q1.339,0,1.673.381.291.567.584,1.176a3.477,3.477,0,0,0-.293,1.9,3.04,3.04,0,0,0,.167.873c.112.456.182.749.209.875l-.165.342A2.866,2.866,0,0,0,173.524,152.3Zm-3.218-.228a.982.982,0,0,0-.209-.456.948.948,0,0,1-.211-.495.866.866,0,0,1,.211-.473.891.891,0,0,0,.209-.475q0-1.331-2.343-1.331a2.467,2.467,0,0,0-.606.114,2.324,2.324,0,0,1-.6.114,2.028,2.028,0,0,1-.5-.095,2.047,2.047,0,0,0-.5-.095,7.893,7.893,0,0,0-.9.075,8,8,0,0,1-.9.078,1.481,1.481,0,0,1-.669-.306,3.722,3.722,0,0,1-.543.267l-.293-.189a1.625,1.625,0,0,0-.647.228c-.293.15-.439.291-.439.417a.576.576,0,0,0,.1.284.583.583,0,0,1,.1.286,1.377,1.377,0,0,1-.209.57,1.281,1.281,0,0,0,.041,1.5,2.16,2.16,0,0,0,1.045.4,1.24,1.24,0,0,1,.335.095,1.2,1.2,0,0,0,.376.095,1.542,1.542,0,0,0,.543-.133,1.568,1.568,0,0,1,.5-.133c.112,0,.306.165.584.495l.293.039a11.425,11.425,0,0,0,1.525-.153,2.482,2.482,0,0,0,1.234-.381c.25.279.432.42.543.42a.737.737,0,0,0,.354-.153.756.756,0,0,1,.4-.153C169.916,152.528,170.306,152.377,170.306,152.072Z" fill="#bebdbd"/>
      </g>
      <g>
        <g>
          <circle cx="143.646" cy="71.478" r="9.967" fill="#fff"/>
          <path d="M143.646,82.245a10.767,10.767,0,1,1,10.767-10.767A10.779,10.779,0,0,1,143.646,82.245Zm0-19.935a9.168,9.168,0,1,0,9.168,9.168A9.178,9.178,0,0,0,143.646,62.31Z" fill="#bdbcbc"/>
        </g>
        <g>
          <circle cx="95.354" cy="71.478" r="9.967" fill="#fff"/>
          <path d="M95.354,82.245a10.767,10.767,0,1,1,10.767-10.767A10.779,10.779,0,0,1,95.354,82.245Zm0-19.935a9.168,9.168,0,1,0,9.168,9.168A9.178,9.178,0,0,0,95.354,62.31Z" fill="#bdbcbc"/>
        </g>
        <path d="M145.253,69.693c0,14.308-11.6,23.324-25.907,23.324S93.438,84,93.438,69.693s11.6-25.262,25.907-25.262S145.253,55.385,145.253,69.693Z" fill="#bdbcbc"/>
        <path d="M134.838,102.068c0,9.522-5.538,11.43-12.369,11.43s-12.369-1.908-12.369-11.43,5.538-17.242,12.369-17.242S134.838,92.546,134.838,102.068Z" fill="#bdbcbc"/>
        <ellipse cx="122.47" cy="106.2" rx="3.617" ry="2.772" fill="#fff"/>
      </g>
    </g>
  </g>
</svg>
