<svg xmlns="http://www.w3.org/2000/svg" width="320" height="200" viewBox="0 0 320 200">
  <title>meteorworks</title>
  <g id="レイヤー_1" data-name="レイヤー 1">
    <g>
      <path d="M61.067,102.118,58.5,116.573H53.839l5.621-28.748L68.294,107.9l9.155-20.076,5.139,28.748H77.93l-2.248-14.455-7.388,16.061" fill="#040000"/>
      <path d="M87.245,116.573V90.394h14.776V94.73H91.9v5.3h9.8v4.336H91.9v7.709h10.118v4.336m10.439.161V94.73h-5.782V90.394H122.9V94.73h-5.782v21.682m10.6.161V90.394h14.615V94.73H132.215v5.3h9.8v4.336h-9.8v7.709h10.118v4.336m17.827.642a12.748,12.748,0,0,1-8.994-3.533A12.889,12.889,0,0,1,146.83,103.4a12.511,12.511,0,0,1,4.015-9.476,13.479,13.479,0,0,1,9.636-4.015,12.511,12.511,0,0,1,9.476,4.015,13.209,13.209,0,0,1,4.015,9.636,12.511,12.511,0,0,1-4.015,9.476,14.136,14.136,0,0,1-9.8,4.015Zm.161-22.806a9.086,9.086,0,0,0-6.264,15.579,8.486,8.486,0,0,0,6.264,2.57,8.6,8.6,0,0,0,6.424-2.57,9.722,9.722,0,0,0,0-13.17,10.233,10.233,0,0,0-6.424-2.409Zm30.033,22.324-7.227-10.439h-.161v10.439h-4.5V90.394h4.818c3.373,0,5.942.642,7.548,1.927a7.893,7.893,0,0,1,.964,10.6,7.1,7.1,0,0,1-3.694,2.409l7.87,10.921h-5.621Zm-6.585-14.455c3.373,0,5.139-1.285,5.139-3.855,0-2.409-1.606-3.533-4.979-3.533h-.964v7.388Zm12.045-12.206h4.658l5.3,15.739,5.782-13.812,5.621,13.812,5.782-15.739h4.658l-10.279,28.427-5.621-15.579-5.942,15.579m35.173-1.285a12.748,12.748,0,0,1-8.994-3.533,12.889,12.889,0,0,1-4.336-10.118,12.511,12.511,0,0,1,4.015-9.476,13.479,13.479,0,0,1,9.636-4.015,12.511,12.511,0,0,1,9.476,4.015,13.209,13.209,0,0,1,4.015,9.636,12.511,12.511,0,0,1-4.015,9.476A13.851,13.851,0,0,1,240.945,117.054Zm.161-22.806a9.086,9.086,0,0,0-6.264,15.579,8.486,8.486,0,0,0,6.264,2.57,8.6,8.6,0,0,0,6.424-2.57,9.722,9.722,0,0,0,0-13.17A9.9,9.9,0,0,0,241.106,94.248Zm30.355,22.324-7.227-10.439h-.161v10.439h-4.5V90.394h4.818c3.373,0,5.942.642,7.548,1.927a7.893,7.893,0,0,1,.964,10.6,7.1,7.1,0,0,1-3.694,2.409l7.87,10.921h-5.621Zm-6.585-14.455c3.373,0,5.139-1.285,5.139-3.855,0-2.409-1.606-3.533-4.979-3.533h-.964v7.388Zm29.391,14.455-8.994-11.082-.321.482v10.761h-4.5V90.394h4.5v9.636l9.315-9.636h6.1l-11.885,11.885,11.724,14.133m10.118.642a7.632,7.632,0,0,1-5.621-2.088,8.948,8.948,0,0,1-2.73-5.782v-.321l4.658-.964v.321a7,7,0,0,0,.8,2.891,3.829,3.829,0,0,0,3.212,1.445,3.308,3.308,0,0,0,2.73-1.124,4.192,4.192,0,0,0,.964-4.015,3.36,3.36,0,0,0-.642-.964,6.985,6.985,0,0,0-1.124-.964,5.024,5.024,0,0,0-1.606-.8l-2.409-.964c-3.533-1.445-5.461-3.855-5.461-6.745A6.344,6.344,0,0,1,305.348,92a8.344,8.344,0,0,1,5.621-2.088,8.122,8.122,0,0,1,7.227,4.336l.161.321-3.694,2.248L314.5,96.5a4.346,4.346,0,0,0-1.445-1.767,3.425,3.425,0,0,0-1.927-.482,3.945,3.945,0,0,0-2.409.8,2.289,2.289,0,0,0-.964,1.927c0,1.124.8,1.927,2.57,2.57l2.57.964a10.43,10.43,0,0,1,4.658,3.212A7.651,7.651,0,0,1,319,108.382a8.356,8.356,0,0,1-2.409,6.1,9.157,9.157,0,0,1-6.264,2.57Z" fill="#040000"/>
      <path d="M43.561,89.591c5.782-8.191,5.3-14.776,16.7-17.345a39.138,39.138,0,0,0-4.336.161,16.117,16.117,0,0,0-7.548,2.409c.964-1.767,1.767-3.373,2.73-4.818a13.06,13.06,0,0,1,8.833-6.1,13.991,13.991,0,0,0-6.906,1.285c-5.461,3.373-6.264,8.673-9.155,11.724a24.01,24.01,0,0,0,1.124-4.015,39.781,39.781,0,0,0,.482-4.336C42.6,77.545,38.1,79.954,31.836,82.524a17.04,17.04,0,0,0,1.445-8.03c-2.088,7.067-7.388,9.155-13.17,13.009,2.088-2.088,3.212-4.658,2.088-7.87-2.57,8.352-7.87,8.512-14.455,13.652A16.877,16.877,0,0,0,1,106.776a16.382,16.382,0,0,0,30.836,7.709c3.052-4.5,12.688-5.461,12.688-12.848a12.156,12.156,0,0,0-.161-2.409c-1.124,5.461-5.139,6.424-10.118,8.994a8.147,8.147,0,0,0,1.124-.964c8.833-8.994,6.745-17.024,16.221-18.952a17.456,17.456,0,0,0-2.891-.161A7.785,7.785,0,0,0,43.561,89.591Zm-9.8-16.864a4.658,4.658,0,0,1,.482-4.818,6.57,6.57,0,0,1,2.73-1.767,17.236,17.236,0,0,0-2.409,2.891A7.79,7.79,0,0,0,33.764,72.727Z" fill="#050001"/>
      <path d="M28.785,99.067c2.891-2.088,9.8-4.658,8.352-10.279-.321,4.818-7.87,6.424-14.294,8.994h0c4.5-2.57,9.476-5.782,11.082-11.242C28.785,94.248,20.915,92.8,12.242,96.979a10.423,10.423,0,0,0-4.5,4.176,10.641,10.641,0,0,0-1.767,5.782A10.831,10.831,0,0,0,16.9,117.858a10.711,10.711,0,0,0,10.6-8.673c1.285-4.658,2.088-10.279,6.906-10.439a7.9,7.9,0,0,0-7.548,2.088C27.5,100.351,28.142,99.548,28.785,99.067ZM36.976,85.9a5.344,5.344,0,0,1,1.445-4.015,8.8,8.8,0,0,1,2.891-1.606S39.545,82.2,38.9,83.006A12.622,12.622,0,0,0,36.976,85.9Zm4.5,3.694a9.5,9.5,0,0,1-1.445,6.424A5.247,5.247,0,0,1,36.655,98.1a25.867,25.867,0,0,0,2.73-2.891A11.153,11.153,0,0,0,41.473,89.591Z" fill="#fff"/>
      <path d="M25.252,107.1a8.191,8.191,0,1,1-8.191-8.191A8.225,8.225,0,0,1,25.252,107.1Z" fill="#e99324"/>
    </g>
  </g>
</svg>
